<svg xmlns="http://www.w3.org/2000/svg" x="0px" y="0px" width="64" height="64" viewBox="0 0 64 64">
<path fill="none" stroke="#9c34c2" stroke-linecap="round" stroke-linejoin="round" stroke-miterlimit="10" stroke-width="5" d="M50.5,30.5v14.097c0,3.099,1.409,6.03,3.828,7.965L55.5,53.5"></path><circle cx="31" cy="31" r="22" fill="#37d0ee"></circle><path d="M52.435,26.057C49.943,26.341,48,28.432,48,31c0,9.374-7.626,17-17,17 c-2.568,0-4.659,1.943-4.943,4.435C27.647,52.801,29.299,53,31,53c12.15,0,22-9.85,22-22C53,29.299,52.801,27.647,52.435,26.057z" opacity=".15"></path><path fill="#fff" d="M31,14c2.568,0,4.659-1.943,4.943-4.435C34.353,9.199,32.701,9,31,9 C18.85,9,9,18.85,9,31c0,1.701,0.199,3.353,0.565,4.943C12.057,35.659,14,33.568,14,31C14,21.626,21.626,14,31,14z" opacity=".3"></path><ellipse cx="32" cy="61" opacity=".3" rx="19" ry="3"></ellipse><circle cx="31" cy="42" r="5" fill="#9c34c2"></circle><circle cx="20" cy="31" r="5" fill="#9c34c2"></circle><circle cx="42" cy="31" r="5" fill="#9c34c2"></circle><circle cx="31" cy="20" r="5" fill="#9c34c2"></circle><circle cx="31" cy="31" r="3" fill="#008aa9"></circle><path fill="none" stroke="#fff" stroke-linecap="round" stroke-linejoin="round" stroke-miterlimit="10" stroke-width="3" d="M15.35,21.143c1.64-2.595,3.907-4.755,6.587-6.267"></path>
</svg>